<?xml version="1.0" encoding="utf-8"?>
<!-- Generator: Adobe Illustrator 23.0.5, SVG Export Plug-In . SVG Version: 6.00 Build 0)  -->
<svg version="1.1" xmlns="http://www.w3.org/2000/svg" xmlns:xlink="http://www.w3.org/1999/xlink" x="0px" y="0px"
	 viewBox="0 0 1920 1080" style="enable-background:new 0 0 1920 1080;" xml:space="preserve">
<style type="text/css">
	.st0{fill:#FFFFFF;}
	.st1{fill:#CFF09E;}
</style>
<g id="Capa_2">
	<path d="M1881.1,857H38.9C17.4,857,0,839.6,0,818.1V261.9C0,240.4,17.4,223,38.9,223h1842.1c21.5,0,38.9,17.4,38.9,38.9v556.1
		C1920,839.6,1902.6,857,1881.1,857z"/>
</g>
<g id="letra">
	<g>
		<g>
			<path class="st0" d="M124.5,570.9c145.5-3.1-39.3,83.7-43.7,137.3c-6.7,21.1,301.8-178,50.6-182.3c-62.5,4.8-25.7-51.1,12.5-86.8
				c20-18.1,40.6-25,56.4-30.9c20.4-5.9,11-26.5-0.9-32.2C125.2,334.3-52.1,571.5,124.5,570.9z"/>
		</g>
		<path class="st1" d="M502,431.5c-8.6-4.7-17.3-8.6-26.2-11.6c-8.9-3.1-17.2-4.6-24.9-4.6c-9.6,0-17.1,1.9-22.6,5.8
			c-5.5,3.9-8.3,9.7-8.3,17.4c0,5.3,2.1,10,6.3,14.2c4.2,4.2,9.6,7.9,16.2,11.2c6.6,3.3,13.5,6.2,20.6,8.9c6.5,2.4,13,5.4,19.4,8.7
			c6.4,3.4,12.2,7.5,17.3,12.5c5.1,5,9.2,11.2,12.2,18.7c3.1,7.4,4.6,16.6,4.6,27.4c0,11.4-3,22-8.9,31.8
			c-5.9,9.8-14.6,17.7-26,23.7c-11.4,6-25.5,9-42.2,9c-8.6,0-17.3-0.9-26.2-2.6c-8.9-1.7-17.6-4.4-26.2-8
			c-8.6-3.6-16.8-8.1-24.8-13.6l19.6-34.6c5.3,3.9,11.1,7.3,17.3,10.2c6.2,3,12.5,5.3,18.8,6.9c6.3,1.6,12.1,2.4,17.4,2.4
			c5.3,0,10.7-0.8,16.1-2.3c5.4-1.5,9.9-4.1,13.5-7.8c3.6-3.7,5.4-8.8,5.4-15.3c0-4.5-1.5-8.6-4.4-12.2c-3-3.7-6.9-7-11.9-10.1
			c-5-3.1-10.5-5.7-16.4-8c-6.9-2.6-14.1-5.7-21.4-9.2c-7.3-3.5-14.2-7.7-20.6-12.7c-6.4-5-11.6-11.2-15.6-18.7
			c-4-7.4-6-16.6-6-27.4c0-13,2.9-24.4,8.7-34c5.8-9.6,14-17.2,24.6-22.8c10.6-5.6,22.8-8.7,36.7-9.3c18.1,0,32.9,2.1,44.2,6.4
			c11.3,4.3,21.5,9.4,30.4,15.3L502,431.5z"/>
		<path class="st1" d="M560.1,377h44.4v225.1h-44.4V377z"/>
		<path class="st1" d="M864.1,611.3L693.5,457.2l13.2,7.3l0.9,137.6h-45v-234h1.8l167,153.5l-9.8-4.3L820.7,377h44.7v234.3H864.1z"
			/>
		<path class="st1" d="M923.5,377H1077v42.8H967.8v48h96.7v42.8h-96.7v48.6h113.5v42.8H923.5V377z"/>
		<path class="st1" d="M1290.8,602.2l-54.4-75.5c-7.1,1.4-15.5,2.1-25.1,2.1h-66.4v73.4h-6.1V388.1h72.5c26.3,0,46.9,6.2,61.8,18.5
			c14.9,12.3,22.3,29.6,22.3,51.8c0,17.1-4.6,31.5-13.8,43c-9.2,11.5-22.1,19.4-38.8,23.7l55.7,77.1H1290.8z M1211.9,522.9
			c24.9,0,44-5.6,57.4-16.8c13.4-11.2,20-27.1,20-47.7c0-20.6-6.7-36.5-20-47.7c-13.4-11.2-32.5-16.8-57.4-16.8h-67v129.1H1211.9z"
			/>
		<path class="st1" d="M1513.8,497.3h5.8v78.3c-9,9-19.8,15.8-32.6,20.5c-12.7,4.7-26.5,7-41.1,7c-21,0-39.9-4.7-56.7-14.1
			c-16.8-9.4-30-22.3-39.6-38.7c-9.6-16.4-14.4-34.8-14.4-55.2c0-20.4,4.8-38.8,14.4-55.2c9.6-16.4,22.8-29.3,39.6-38.7
			c16.8-9.4,35.7-14.1,56.7-14.1c14.9,0,28.6,2.3,41.3,6.9c12.6,4.6,23.4,11.4,32.4,20.3l-3.7,4.3c-17.9-17.1-41.3-25.7-70-25.7
			c-19.6,0-37.4,4.5-53.4,13.5c-16,9-28.6,21.3-37.6,36.9c-9.1,15.6-13.6,32.9-13.6,51.8c0,19,4.5,36.2,13.6,51.8
			c9.1,15.6,21.6,27.9,37.6,36.9c16,9,33.8,13.5,53.4,13.5c28.3,0,51-8.1,67.9-24.2V497.3z"/>
		<path class="st1" d="M1594.5,388.1h6.1v214.1h-6.1V388.1z"/>
		<path class="st1" d="M1812,537.6h-130.9l-30,64.5h-7l99.4-214.1h6.1l99.4,214.1h-7L1812,537.6z M1809.3,531.8l-62.7-135.5
			l-62.7,135.5H1809.3z"/>
		<g>
			<path class="st1" d="M383.8,703c-2.5-0.9-4.4-2.2-5.8-3.7l1.2-2c1.3,1.4,3.1,2.5,5.3,3.4c2.2,0.9,4.6,1.3,7,1.3
				c3.6,0,6.3-0.7,8.1-2c1.8-1.4,2.7-3.1,2.7-5.3c0-1.7-0.5-3-1.4-4c-1-1-2.2-1.8-3.6-2.3c-1.4-0.5-3.4-1.1-5.8-1.7
				c-2.7-0.7-5-1.3-6.6-2c-1.7-0.6-3.1-1.6-4.2-3c-1.2-1.3-1.7-3.1-1.7-5.4c0-1.8,0.5-3.5,1.4-5c1-1.5,2.4-2.7,4.4-3.6
				c2-0.9,4.5-1.3,7.4-1.3c2.1,0,4.1,0.3,6.1,0.9c2,0.6,3.7,1.4,5.2,2.5l-1,2.2c-1.5-1-3.2-1.8-5-2.4c-1.8-0.5-3.6-0.8-5.3-0.8
				c-3.5,0-6.1,0.7-7.9,2.1c-1.8,1.4-2.7,3.2-2.7,5.4c0,1.7,0.5,3,1.4,4c1,1,2.2,1.8,3.6,2.3c1.4,0.5,3.4,1.1,5.8,1.7
				c2.7,0.7,4.9,1.3,6.6,2c1.6,0.6,3,1.6,4.2,2.9c1.2,1.3,1.7,3.1,1.7,5.3c0,1.8-0.5,3.5-1.5,5c-1,1.5-2.5,2.7-4.5,3.6
				c-2,0.9-4.5,1.3-7.5,1.3C388.9,704.4,386.2,704,383.8,703z"/>
			<path class="st1" d="M440.2,701.7v2.5h-25.9v-37.5h25.1v2.5h-22.3v14.8h20v2.4h-20v15.4H440.2z"/>
			<path class="st1" d="M476.2,704.2l-8.9-12.5c-1.3,0.2-2.5,0.3-3.6,0.3h-10.7v12.3h-2.7v-37.5h13.4c4.7,0,8.4,1.1,11.1,3.3
				c2.7,2.2,4,5.3,4,9.3c0,3-0.8,5.5-2.3,7.5c-1.5,2-3.7,3.4-6.5,4.3l9.4,13.1H476.2z M463.6,689.5c4,0,7.1-0.9,9.2-2.7
				c2.1-1.8,3.2-4.3,3.2-7.5c0-3.2-1.1-5.8-3.2-7.5c-2.1-1.8-5.2-2.7-9.2-2.7h-10.7v20.3H463.6z"/>
			<path class="st1" d="M518.7,666.7L502,704.2h-2.7l-16.7-37.5h3l15.2,34l15.2-34H518.7z"/>
			<path class="st1" d="M524.7,666.7h2.7v37.5h-2.7V666.7z"/>
			<path class="st1" d="M546.4,702c-2.9-1.6-5.3-3.9-7-6.8c-1.7-2.9-2.5-6.1-2.5-9.7c0-3.6,0.8-6.9,2.5-9.7c1.7-2.9,4-5.2,7-6.8
				c2.9-1.6,6.3-2.5,9.9-2.5c2.7,0,5.2,0.4,7.5,1.3c2.3,0.9,4.2,2.2,5.8,3.9l-1.7,1.8c-3-3-6.8-4.4-11.5-4.4c-3.1,0-6,0.7-8.6,2.1
				c-2.6,1.4-4.6,3.4-6.1,5.9c-1.5,2.5-2.2,5.3-2.2,8.4c0,3.1,0.7,5.9,2.2,8.4c1.5,2.5,3.5,4.5,6.1,5.9c2.6,1.4,5.4,2.1,8.6,2.1
				c4.6,0,8.5-1.5,11.5-4.5l1.7,1.8c-1.6,1.7-3.6,3-5.9,3.9c-2.3,0.9-4.8,1.3-7.5,1.3C552.7,704.4,549.4,703.6,546.4,702z"/>
			<path class="st1" d="M578.9,666.7h2.7v37.5h-2.7V666.7z"/>
			<path class="st1" d="M600.6,701.9c-3-1.7-5.3-3.9-7-6.8c-1.7-2.9-2.5-6.1-2.5-9.7c0-3.6,0.8-6.8,2.5-9.7c1.7-2.9,4-5.2,7-6.8
				c3-1.7,6.3-2.5,10-2.5c3.7,0,7,0.8,10,2.5c3,1.6,5.3,3.9,7,6.8c1.7,2.9,2.5,6.1,2.5,9.7c0,3.6-0.8,6.9-2.5,9.7
				c-1.7,2.9-4,5.2-7,6.8c-3,1.6-6.3,2.5-10,2.5C606.9,704.4,603.6,703.6,600.6,701.9z M619.1,699.8c2.5-1.4,4.5-3.4,6-5.9
				c1.5-2.5,2.2-5.3,2.2-8.4c0-3.1-0.7-5.9-2.2-8.4c-1.5-2.5-3.5-4.5-6-5.9c-2.5-1.4-5.4-2.1-8.5-2.1c-3.1,0-6,0.7-8.5,2.1
				c-2.6,1.4-4.6,3.4-6,5.9c-1.5,2.5-2.2,5.3-2.2,8.4c0,3.1,0.7,5.9,2.2,8.4c1.5,2.5,3.5,4.5,6,5.9c2.6,1.4,5.4,2.1,8.5,2.1
				C613.7,701.9,616.6,701.2,619.1,699.8z"/>
			<path class="st1" d="M653.3,666.7h14.8c3.9,0,7.3,0.8,10.4,2.4c3,1.6,5.4,3.8,7,6.7c1.7,2.8,2.5,6.1,2.5,9.7
				c0,3.6-0.8,6.8-2.5,9.7c-1.7,2.8-4,5.1-7,6.7c-3,1.6-6.5,2.4-10.4,2.4h-14.8V666.7z M667.9,701.7c3.5,0,6.5-0.7,9.2-2.1
				c2.6-1.4,4.7-3.3,6.1-5.8c1.4-2.5,2.1-5.3,2.1-8.5c0-3.2-0.7-6-2.1-8.5c-1.4-2.5-3.5-4.4-6.1-5.8c-2.6-1.4-5.7-2.1-9.2-2.1H656
				v32.6H667.9z"/>
			<path class="st1" d="M723.4,701.7v2.5h-25.9v-37.5h25.1v2.5h-22.3v14.8h20v2.4h-20v15.4H723.4z"/>
			<path class="st1" d="M782.6,704.2l-0.1-32.1l-15.7,27.1h-1.3l-15.7-27v32h-2.7v-37.5h2.3l16.8,29l16.8-29h2.2l0.1,37.5H782.6z"/>
			<path class="st1" d="M824.2,701.7v2.5h-25.9v-37.5h25.1v2.5h-22.3v14.8h20v2.4h-20v15.4H824.2z"/>
			<path class="st1" d="M864.7,666.7v37.5h-2.2l-25.5-32.6v32.6h-2.7v-37.5h2.3l25.5,32.6v-32.6H864.7z"/>
			<path class="st1" d="M879.7,703c-2.5-0.9-4.4-2.2-5.8-3.7l1.2-2c1.3,1.4,3.1,2.5,5.3,3.4c2.2,0.9,4.6,1.3,7,1.3
				c3.6,0,6.3-0.7,8.1-2c1.8-1.4,2.7-3.1,2.7-5.3c0-1.7-0.5-3-1.4-4c-1-1-2.2-1.8-3.6-2.3c-1.4-0.5-3.4-1.1-5.8-1.7
				c-2.7-0.7-5-1.3-6.6-2c-1.7-0.6-3.1-1.6-4.2-3c-1.2-1.3-1.7-3.1-1.7-5.4c0-1.8,0.5-3.5,1.4-5c1-1.5,2.4-2.7,4.4-3.6
				c2-0.9,4.5-1.3,7.4-1.3c2.1,0,4.1,0.3,6.1,0.9c2,0.6,3.7,1.4,5.2,2.5l-1,2.2c-1.5-1-3.2-1.8-5-2.4c-1.8-0.5-3.6-0.8-5.3-0.8
				c-3.5,0-6.1,0.7-7.9,2.1c-1.8,1.4-2.7,3.2-2.7,5.4c0,1.7,0.5,3,1.4,4c1,1,2.2,1.8,3.6,2.3c1.4,0.5,3.4,1.1,5.8,1.7
				c2.7,0.7,4.9,1.3,6.6,2c1.6,0.6,3,1.6,4.2,2.9c1.2,1.3,1.7,3.1,1.7,5.3c0,1.8-0.5,3.5-1.5,5c-1,1.5-2.5,2.7-4.5,3.6
				c-2,0.9-4.5,1.3-7.5,1.3C884.8,704.4,882.2,704,879.7,703z"/>
			<path class="st1" d="M933.5,693.6h-21.7l-4.8,10.5h-2.9l17.2-37.5h2.7l17.2,37.5h-2.9L933.5,693.6z M932.5,691.3l-9.9-21.6
				l-9.8,21.6H932.5z"/>
			<path class="st1" d="M946.6,703c-1.8-0.9-3.2-2.3-4.3-3.9l1.7-1.8c1,1.5,2.3,2.7,3.7,3.5c1.4,0.8,3,1.2,4.6,1.2
				c2.5,0,4.4-0.7,5.6-2.2c1.2-1.4,1.8-3.7,1.8-6.7v-24h-13.8v-2.5h16.5v26.5c0,3.7-0.9,6.6-2.6,8.5c-1.7,1.9-4.2,2.8-7.6,2.8
				C950.2,704.4,948.3,704,946.6,703z"/>
			<path class="st1" d="M1001.1,701.7v2.5h-25.9v-37.5h25.1v2.5h-22.3v14.8h20v2.4h-20v15.4H1001.1z"/>
			<path class="st1" d="M1037.1,704.2l-8.9-12.5c-1.3,0.2-2.5,0.3-3.6,0.3h-10.7v12.3h-2.7v-37.5h13.4c4.7,0,8.4,1.1,11.1,3.3
				c2.7,2.2,4,5.3,4,9.3c0,3-0.8,5.5-2.3,7.5c-1.5,2-3.7,3.4-6.5,4.3l9.4,13.1H1037.1z M1024.5,689.5c4,0,7.1-0.9,9.2-2.7
				c2.1-1.8,3.2-4.3,3.2-7.5c0-3.2-1.1-5.8-3.2-7.5c-2.1-1.8-5.2-2.7-9.2-2.7h-10.7v20.3H1024.5z"/>
			<path class="st1" d="M1055.4,657.3h3.9l-8.4,6.3h-2.9L1055.4,657.3z M1049.6,666.7h2.7v37.5h-2.7V666.7z"/>
			<path class="st1" d="M1088.6,693.6h-21.7l-4.8,10.5h-2.9l17.2-37.5h2.7l17.2,37.5h-2.9L1088.6,693.6z M1087.5,691.3l-9.9-21.6
				l-9.8,21.6H1087.5z"/>
			<path class="st1" d="M1105.4,700.5c0.4,0.4,0.6,1,0.6,1.6c0,0.4,0,0.7-0.1,1.1c-0.1,0.4-0.2,0.8-0.3,1.3l-2.1,7.3h-1.9l1.8-7.6
				c-0.5-0.1-1-0.4-1.3-0.8c-0.3-0.4-0.5-0.8-0.5-1.4c0-0.6,0.2-1.2,0.6-1.6c0.4-0.4,1-0.6,1.6-0.6
				C1104.4,699.8,1105,700,1105.4,700.5z"/>
			<path class="st1" d="M1129.4,666.7h14.8c3.9,0,7.3,0.8,10.4,2.4c3,1.6,5.4,3.8,7,6.7c1.7,2.8,2.5,6.1,2.5,9.7
				c0,3.6-0.8,6.8-2.5,9.7c-1.7,2.8-4,5.1-7,6.7c-3,1.6-6.5,2.4-10.4,2.4h-14.8V666.7z M1144,701.7c3.5,0,6.5-0.7,9.2-2.1
				c2.6-1.4,4.7-3.3,6.1-5.8c1.4-2.5,2.1-5.3,2.1-8.5c0-3.2-0.7-6-2.1-8.5c-1.4-2.5-3.5-4.4-6.1-5.8c-2.6-1.4-5.7-2.1-9.2-2.1h-11.9
				v32.6H1144z"/>
			<path class="st1" d="M1173.7,666.7h2.7v37.5h-2.7V666.7z"/>
			<path class="st1" d="M1191.5,703c-2.5-0.9-4.4-2.2-5.8-3.7l1.2-2c1.3,1.4,3.1,2.5,5.3,3.4c2.2,0.9,4.6,1.3,7,1.3
				c3.6,0,6.3-0.7,8.1-2c1.8-1.4,2.7-3.1,2.7-5.3c0-1.7-0.5-3-1.4-4c-1-1-2.2-1.8-3.6-2.3c-1.4-0.5-3.4-1.1-5.8-1.7
				c-2.7-0.7-5-1.3-6.6-2c-1.7-0.6-3.1-1.6-4.2-3c-1.2-1.3-1.7-3.1-1.7-5.4c0-1.8,0.5-3.5,1.4-5c1-1.5,2.4-2.7,4.4-3.6
				c2-0.9,4.5-1.3,7.4-1.3c2.1,0,4.1,0.3,6.1,0.9c2,0.6,3.7,1.4,5.2,2.5l-1,2.2c-1.5-1-3.2-1.8-5-2.4c-1.8-0.5-3.6-0.8-5.3-0.8
				c-3.5,0-6.1,0.7-7.9,2.1c-1.8,1.4-2.7,3.2-2.7,5.4c0,1.7,0.5,3,1.4,4c1,1,2.2,1.8,3.6,2.3c1.4,0.5,3.4,1.1,5.8,1.7
				c2.7,0.7,4.9,1.3,6.6,2c1.6,0.6,3,1.6,4.2,2.9c1.2,1.3,1.7,3.1,1.7,5.3c0,1.8-0.5,3.5-1.5,5c-1,1.5-2.5,2.7-4.5,3.6
				c-2,0.9-4.5,1.3-7.5,1.3C1196.6,704.4,1193.9,704,1191.5,703z"/>
			<path class="st1" d="M1228.7,669.1h-13.5v-2.5h29.7v2.5h-13.5v35h-2.7V669.1z"/>
			<path class="st1" d="M1277.7,704.2l-8.9-12.5c-1.3,0.2-2.5,0.3-3.6,0.3h-10.7v12.3h-2.7v-37.5h13.4c4.7,0,8.4,1.1,11.1,3.3
				c2.7,2.2,4,5.3,4,9.3c0,3-0.8,5.5-2.3,7.5c-1.5,2-3.7,3.4-6.5,4.3l9.4,13.1H1277.7z M1265.1,689.5c4,0,7.1-0.9,9.2-2.7
				c2.1-1.8,3.2-4.3,3.2-7.5c0-3.2-1.1-5.8-3.2-7.5c-2.1-1.8-5.2-2.7-9.2-2.7h-10.7v20.3H1265.1z"/>
			<path class="st1" d="M1290.2,666.7h2.7v37.5h-2.7V666.7z"/>
			<path class="st1" d="M1334.4,688c1.4,1.6,2.1,3.7,2.1,6.3c0,3.2-1.2,5.6-3.5,7.3c-2.3,1.7-5.8,2.6-10.3,2.6H1306v-37.5h15.6
				c4.1,0,7.2,0.8,9.5,2.5c2.3,1.7,3.4,4,3.4,7.1c0,2.1-0.6,3.9-1.7,5.4c-1.1,1.5-2.7,2.5-4.6,3.2C1331,685.3,1333,686.4,1334.4,688
				z M1308.8,669V684h12.8c3.3,0,5.8-0.6,7.6-1.9c1.8-1.3,2.7-3.1,2.7-5.6c0-2.4-0.9-4.3-2.7-5.5c-1.8-1.3-4.3-1.9-7.6-1.9H1308.8z
				 M1331,699.9c1.9-1.3,2.8-3.2,2.8-5.9c0-2.6-0.9-4.6-2.8-5.8c-1.9-1.2-4.6-1.9-8.3-1.9h-14v15.5h14
				C1326.4,701.8,1329.1,701.2,1331,699.9z"/>
			<path class="st1" d="M1349.9,700.3c-2.6-2.7-3.9-6.8-3.9-12v-21.6h2.7v21.5c0,4.6,1.1,8.1,3.2,10.3c2.1,2.3,5.2,3.4,9.2,3.4
				c4,0,7-1.1,9.1-3.4c2.1-2.3,3.2-5.7,3.2-10.3v-21.5h2.7v21.6c0,5.3-1.3,9.3-4,12c-2.6,2.7-6.3,4.1-11.1,4.1
				C1356.2,704.4,1352.5,703.1,1349.9,700.3z"/>
			<path class="st1" d="M1394.7,702c-2.9-1.6-5.3-3.9-7-6.8c-1.7-2.9-2.5-6.1-2.5-9.7c0-3.6,0.8-6.9,2.5-9.7c1.7-2.9,4-5.2,7-6.8
				c2.9-1.6,6.3-2.5,9.9-2.5c2.7,0,5.2,0.4,7.5,1.3c2.3,0.9,4.2,2.2,5.8,3.9l-1.7,1.8c-3-3-6.8-4.4-11.5-4.4c-3.1,0-6,0.7-8.6,2.1
				c-2.6,1.4-4.6,3.4-6.1,5.9c-1.5,2.5-2.2,5.3-2.2,8.4c0,3.1,0.7,5.9,2.2,8.4c1.5,2.5,3.5,4.5,6.1,5.9c2.6,1.4,5.4,2.1,8.6,2.1
				c4.6,0,8.5-1.5,11.5-4.5l1.7,1.8c-1.6,1.7-3.6,3-5.9,3.9c-2.3,0.9-4.8,1.3-7.5,1.3C1400.9,704.4,1397.6,703.6,1394.7,702z"/>
			<path class="st1" d="M1427.1,666.7h2.7v37.5h-2.7V666.7z"/>
			<path class="st1" d="M1448.9,701.9c-3-1.7-5.3-3.9-7-6.8c-1.7-2.9-2.5-6.1-2.5-9.7c0-3.6,0.8-6.8,2.5-9.7c1.7-2.9,4-5.2,7-6.8
				c3-1.7,6.3-2.5,10-2.5c3.7,0,7,0.8,10,2.5c3,1.6,5.3,3.9,7,6.8c1.7,2.9,2.5,6.1,2.5,9.7c0,3.6-0.8,6.9-2.5,9.7
				c-1.7,2.9-4,5.2-7,6.8c-3,1.6-6.3,2.5-10,2.5C1455.1,704.4,1451.8,703.6,1448.9,701.9z M1467.3,699.8c2.5-1.4,4.5-3.4,6-5.9
				c1.5-2.5,2.2-5.3,2.2-8.4c0-3.1-0.7-5.9-2.2-8.4c-1.5-2.5-3.5-4.5-6-5.9c-2.5-1.4-5.4-2.1-8.5-2.1c-3.1,0-6,0.7-8.5,2.1
				c-2.6,1.4-4.6,3.4-6,5.9c-1.5,2.5-2.2,5.3-2.2,8.4c0,3.1,0.7,5.9,2.2,8.4c1.5,2.5,3.5,4.5,6,5.9c2.6,1.4,5.4,2.1,8.5,2.1
				C1462,701.9,1464.8,701.2,1467.3,699.8z M1463.2,657.3h3.9l-8.4,6.3h-2.9L1463.2,657.3z"/>
			<path class="st1" d="M1518.3,666.7v37.5h-2.2l-25.5-32.6v32.6h-2.7v-37.5h2.3l25.5,32.6v-32.6H1518.3z"/>
			<path class="st1" d="M1556.7,691.3v12.9h-2.7v-12.9l-15.1-24.6h3l13.5,22.1l13.5-22.1h2.8L1556.7,691.3z"/>
			<path class="st1" d="M1592.4,666.7h2.7v35h21.6v2.5h-24.3V666.7z"/>
			<path class="st1" d="M1628.9,701.9c-3-1.7-5.3-3.9-7-6.8c-1.7-2.9-2.5-6.1-2.5-9.7c0-3.6,0.8-6.8,2.5-9.7c1.7-2.9,4-5.2,7-6.8
				c3-1.7,6.3-2.5,10-2.5c3.7,0,7,0.8,10,2.5c3,1.6,5.3,3.9,7,6.8c1.7,2.9,2.5,6.1,2.5,9.7c0,3.6-0.8,6.9-2.5,9.7
				c-1.7,2.9-4,5.2-7,6.8c-3,1.6-6.3,2.5-10,2.5C1635.2,704.4,1631.9,703.6,1628.9,701.9z M1647.4,699.8c2.5-1.4,4.5-3.4,6-5.9
				c1.5-2.5,2.2-5.3,2.2-8.4c0-3.1-0.7-5.9-2.2-8.4c-1.5-2.5-3.5-4.5-6-5.9c-2.5-1.4-5.4-2.1-8.5-2.1c-3.1,0-6,0.7-8.5,2.1
				c-2.6,1.4-4.6,3.4-6,5.9c-1.5,2.5-2.2,5.3-2.2,8.4c0,3.1,0.7,5.9,2.2,8.4c1.5,2.5,3.5,4.5,6,5.9c2.6,1.4,5.4,2.1,8.5,2.1
				C1642,701.9,1644.8,701.2,1647.4,699.8z"/>
			<path class="st1" d="M1694.6,685.6h2.6v14c-1.6,1.6-3.6,2.8-6,3.6c-2.3,0.8-4.8,1.2-7.4,1.2c-3.7,0-7.1-0.8-10-2.5
				c-3-1.6-5.3-3.9-7-6.8c-1.7-2.9-2.5-6.1-2.5-9.7c0-3.6,0.8-6.9,2.5-9.7c1.7-2.9,4-5.2,7-6.8c3-1.6,6.3-2.5,10.1-2.5
				c2.7,0,5.3,0.4,7.6,1.3c2.3,0.9,4.3,2.2,5.9,3.8l-1.7,1.8c-1.6-1.6-3.3-2.7-5.3-3.4c-1.9-0.7-4.1-1-6.5-1c-3.2,0-6.1,0.7-8.7,2.1
				c-2.6,1.4-4.6,3.4-6.1,5.9c-1.5,2.5-2.2,5.3-2.2,8.4c0,3.1,0.7,5.9,2.2,8.4c1.5,2.5,3.5,4.5,6.1,5.9c2.6,1.4,5.5,2.2,8.7,2.2
				c4.3,0,7.8-1.1,10.7-3.4V685.6z"/>
			<path class="st1" d="M1715,657.3h3.9l-8.4,6.3h-2.9L1715,657.3z M1709.2,666.7h2.7v37.5h-2.7V666.7z"/>
			<path class="st1" d="M1727,703c-2.5-0.9-4.4-2.2-5.8-3.7l1.2-2c1.3,1.4,3.1,2.5,5.3,3.4c2.2,0.9,4.6,1.3,7,1.3
				c3.6,0,6.3-0.7,8.1-2c1.8-1.4,2.7-3.1,2.7-5.3c0-1.7-0.5-3-1.4-4c-1-1-2.2-1.8-3.6-2.3c-1.4-0.5-3.4-1.1-5.8-1.7
				c-2.7-0.7-5-1.3-6.6-2c-1.7-0.6-3.1-1.6-4.2-3c-1.2-1.3-1.7-3.1-1.7-5.4c0-1.8,0.5-3.5,1.4-5c1-1.5,2.4-2.7,4.4-3.6
				c2-0.9,4.5-1.3,7.4-1.3c2.1,0,4.1,0.3,6.1,0.9c2,0.6,3.7,1.4,5.2,2.5l-1,2.2c-1.5-1-3.2-1.8-5-2.4c-1.8-0.5-3.6-0.8-5.3-0.8
				c-3.5,0-6.1,0.7-7.9,2.1c-1.8,1.4-2.7,3.2-2.7,5.4c0,1.7,0.5,3,1.4,4c1,1,2.2,1.8,3.6,2.3c1.4,0.5,3.4,1.1,5.8,1.7
				c2.7,0.7,4.9,1.3,6.6,2c1.6,0.6,3,1.6,4.2,2.9c1.2,1.3,1.7,3.1,1.7,5.3c0,1.8-0.5,3.5-1.5,5c-1,1.5-2.5,2.7-4.5,3.6
				c-2,0.9-4.5,1.3-7.5,1.3C1732.1,704.4,1729.5,704,1727,703z"/>
			<path class="st1" d="M1764.3,669.1h-13.5v-2.5h29.7v2.5H1767v35h-2.7V669.1z"/>
			<path class="st1" d="M1787.3,666.7h2.7v37.5h-2.7V666.7z"/>
			<path class="st1" d="M1809,702c-2.9-1.6-5.3-3.9-7-6.8c-1.7-2.9-2.5-6.1-2.5-9.7c0-3.6,0.8-6.9,2.5-9.7c1.7-2.9,4-5.2,7-6.8
				c2.9-1.6,6.3-2.5,9.9-2.5c2.7,0,5.2,0.4,7.5,1.3c2.3,0.9,4.2,2.2,5.8,3.9l-1.7,1.8c-3-3-6.8-4.4-11.5-4.4c-3.1,0-6,0.7-8.6,2.1
				c-2.6,1.4-4.6,3.4-6.1,5.9c-1.5,2.5-2.2,5.3-2.2,8.4c0,3.1,0.7,5.9,2.2,8.4c1.5,2.5,3.5,4.5,6.1,5.9c2.6,1.4,5.4,2.1,8.6,2.1
				c4.6,0,8.5-1.5,11.5-4.5l1.7,1.8c-1.6,1.7-3.6,3-5.9,3.9c-2.3,0.9-4.8,1.3-7.5,1.3C1815.2,704.4,1811.9,703.6,1809,702z"/>
			<path class="st1" d="M1863.6,693.6h-21.7l-4.8,10.5h-2.9l17.2-37.5h2.7l17.2,37.5h-2.9L1863.6,693.6z M1862.5,691.3l-9.9-21.6
				l-9.8,21.6H1862.5z"/>
		</g>
		<path class="st0" d="M296,704.4L296,704.4c2.6,0,4.8-2.1,4.8-4.8V382.2c0-2.6-2.1-4.8-4.8-4.8h0c-2.6,0-4.8,2.1-4.8,4.8v317.5
			C291.3,702.3,293.4,704.4,296,704.4z"/>
	</g>
</g>
</svg>
