<svg xmlns="http://www.w3.org/2000/svg" viewBox="0 0 509 509"><defs><style>.cls-1{fill:#c556ff;}.cls-2{fill:#3bfcff;}.cls-3{fill:#fff;}</style></defs><title>muestra-sinergia-software-logo_1</title><g id="Capa_2" data-name="Capa 2"><g id="letra"><circle cx="254.5" cy="254.5" r="254.5"/><path class="cls-1" d="M225.42,275.65c149.58-3-40.44,80.13-44.94,131.55-6.91,20.2,310.31-170.53,52-174.61-64.3,4.63-26.43-48.93,12.83-83.12,20.55-17.34,41.73-23.91,58-29.59,20.93-5.69,11.3-25.42-.9-30.8C226.07,49,43.74,276.25,225.42,275.65Z"/><path class="cls-2" d="M253.08,291.61c149.58-3-40.44,80.13-44.94,131.55-6.91,20.2,310.3-170.53,52-174.61-64.29,4.63-26.42-48.93,12.84-83.12,20.54-17.34,41.73-23.92,58-29.59,20.93-5.69,11.3-25.42-.9-30.8C253.72,65,71.4,292.2,253.08,291.61Z"/><path class="cls-3" d="M241.42,282.65c149.58-3-40.44,80.13-44.94,131.55-6.91,20.2,310.31-170.53,52-174.61-64.3,4.63-26.43-48.93,12.83-83.12,20.55-17.34,41.73-23.91,58-29.59,20.93-5.69,11.3-25.42-.9-30.8C242.07,56,59.74,283.25,241.42,282.65Z"/></g></g></svg>